<svg
	data-fileid="11573"
	shape-rendering="auto"
	aria-hidden="true"
	role="presentation"
	xmlns="http://www.w3.org/2000/svg"
>
	<style xmlns="http://www.w3.org/2000/svg" type="text/css">
		.st0_white {
			fill: #000;
		}
		.st1_blue {
			fill: #5bc0be;
		}
	</style>
	<g xmlns="http://www.w3.org/2000/svg">
		<path
			class="st0_white"
			d="M115.2,18.2c0-2.8,2.2-5,5-5c2.7,0,4.8,2.2,4.8,5s-2.2,5-4.8,5C117.4,23.2,115.2,21,115.2,18.2z M116.4,30.4   h7.3v44.1h-7.3V30.4z"
		></path>
		<path class="st0_white" d="M136.5,18.4h31.7v6h-24.4v18.9h19.8v6h-19.8v25.3h-7.3V18.4z"></path>
		<path
			class="st0_white"
			d="M194.3,75.2c-12.5,0-22-8.9-22-22.9c0-13.9,9.8-22.7,22.3-22.7c12.6,0,22.3,8.8,22.3,22.7   C216.9,66.4,206.8,75.2,194.3,75.2z M194.3,68.8c7.6,0,15.1-5.2,15.1-16.4c0-11.1-7.3-16.3-14.9-16.3c-7.7,0-14.7,5.2-14.7,16.3   C179.8,63.6,186.6,68.8,194.3,68.8z"
		></path>
		<path class="st0_white" d="M226.7,14.9h7.3v35l17-19.6h10.2l-20.8,22l20.8,22.1h-10L234,55v19.5h-7.3V14.9z"></path>
		<path
			class="st0_white"
			d="M307.6,74.5h-7.3V68c-2.8,4.6-8.2,7.2-14.1,7.2c-10.1,0-18.1-6.3-18.1-18.9V30.4h7.2v24.9   c0,8.9,4.9,13.5,12.3,13.5c7.6,0,12.6-4.7,12.6-14.2V30.4h7.3L307.6,74.5L307.6,74.5z"
		></path>
		<path
			class="st0_white"
			d="M335.5,75.2c-10.3,0-17.5-5.6-18-13.7h7.6c0.4,4.3,4.2,7.5,10.4,7.5c5.8,0,9-2.9,9-6.5   c0-9.8-26.1-4.1-26.1-20.5c0-6.8,6.4-12.3,16.2-12.3c9.7,0,16.2,5.2,16.7,13.8h-7.3c-0.3-4.4-3.7-7.7-9.6-7.7   c-5.4,0-8.6,2.6-8.6,6.1c0,10.5,25.6,4.8,25.9,20.5C351.6,69.8,345.2,75.2,335.5,75.2z"
		></path>
	</g>
	<g xmlns="http://www.w3.org/2000/svg">
		<path
			class="st1_blue"
			d="M79.7,46.4c0,22-17.8,39.8-39.8,39.8S0,68.4,0,46.4S17.8,6.6,39.8,6.6S79.7,24.4,79.7,46.4"
		></path>
		<path
			class="st0_white"
			d="M67.8,6.2c-6.8,0-12.2,5.5-12.2,12.2S61,30.7,67.8,30.7S80,25.2,80,18.5C80,11.7,74.5,6.2,67.8,6.2 M67.8,37   c-10.2,0-18.5-8.3-18.5-18.5C49.3,8.3,57.6,0,67.8,0s18.5,8.3,18.5,18.5C86.2,28.7,78,37,67.8,37"
		></path>
	</g>
	<g xmlns="http://www.w3.org/2000/svg">
		<g>
			<g>
				<path
					class="st0_white"
					d="M126.8,114.7l-7.3-8.4v8.4h-3.1V95.9h3.1v8.6l7.3-8.6h3.9l-8.2,9.4l8.3,9.4H126.8z"
				></path>
				<path
					class="st0_white"
					d="M135.2,114c-1.1-0.6-2-1.5-2.7-2.7c-0.6-1.2-1-2.5-1-4c0-1.5,0.3-2.9,1-4c0.7-1.2,1.6-2.1,2.7-2.7     c1.2-0.6,2.4-0.9,3.9-0.9s2.7,0.3,3.9,0.9c1.2,0.6,2.1,1.5,2.7,2.7c0.7,1.2,1,2.5,1,4c0,1.5-0.3,2.9-1,4     c-0.7,1.2-1.6,2.1-2.8,2.7c-1.2,0.6-2.5,1-3.9,1C137.6,114.9,136.3,114.6,135.2,114z M141.2,111.7c0.7-0.4,1.3-0.9,1.7-1.7     c0.4-0.8,0.6-1.7,0.6-2.8s-0.2-2-0.6-2.7s-1-1.3-1.6-1.7c-0.7-0.4-1.4-0.6-2.2-0.6s-1.5,0.2-2.2,0.6s-1.2,0.9-1.6,1.7     c-0.4,0.7-0.6,1.7-0.6,2.7c0,1.6,0.4,2.8,1.2,3.7c0.8,0.9,1.8,1.3,3.1,1.3C139.8,112.3,140.5,112.1,141.2,111.7z"
				></path>
				<path
					class="st0_white"
					d="M155.3,100.3c0.9-0.5,1.9-0.7,3.1-0.7c1.3,0,2.5,0.3,3.6,1c1.1,0.6,1.9,1.5,2.5,2.7c0.6,1.2,0.9,2.5,0.9,4     s-0.3,2.8-0.9,4c-0.6,1.2-1.5,2.1-2.5,2.8c-1.1,0.7-2.3,1-3.6,1c-1.1,0-2.1-0.2-3-0.7c-0.9-0.5-1.6-1-2.2-1.7v9.2h-3.1v-22h3.1     v2.2C153.7,101.3,154.4,100.7,155.3,100.3z M161.6,104.5c-0.4-0.7-1-1.3-1.7-1.7c-0.7-0.4-1.4-0.6-2.2-0.6     c-0.8,0-1.5,0.2-2.2,0.6c-0.7,0.4-1.3,1-1.7,1.7s-0.6,1.6-0.6,2.7c0,1,0.2,1.9,0.6,2.7c0.4,0.8,1,1.3,1.7,1.7     c0.7,0.4,1.4,0.6,2.2,0.6c0.8,0,1.5-0.2,2.2-0.6c0.7-0.4,1.3-1,1.7-1.8c0.4-0.8,0.6-1.7,0.6-2.7     C162.3,106.2,162,105.3,161.6,104.5z"
				></path>
				<path
					class="st0_white"
					d="M168.9,103.2c0.6-1.2,1.5-2,2.5-2.7c1.1-0.6,2.3-1,3.6-1c1.2,0,2.2,0.2,3.1,0.7s1.6,1,2.1,1.7v-2.2h3.1v14.9     h-3.1v-2.2c-0.5,0.7-1.2,1.3-2.1,1.8c-0.9,0.5-1.9,0.7-3.1,0.7c-1.3,0-2.4-0.3-3.5-1c-1.1-0.7-1.9-1.6-2.5-2.8     c-0.6-1.2-0.9-2.5-0.9-4S168.2,104.4,168.9,103.2z M179.5,104.6c-0.4-0.8-1-1.3-1.7-1.7c-0.7-0.4-1.4-0.6-2.2-0.6     c-0.8,0-1.5,0.2-2.2,0.6c-0.7,0.4-1.2,1-1.7,1.7c-0.4,0.7-0.6,1.6-0.6,2.7c0,1,0.2,1.9,0.6,2.7c0.4,0.8,1,1.4,1.7,1.8     c0.7,0.4,1.4,0.6,2.2,0.6c0.8,0,1.5-0.2,2.2-0.6c0.7-0.4,1.2-1,1.7-1.7c0.4-0.8,0.6-1.7,0.6-2.7     C180.1,106.2,179.9,105.3,179.5,104.6z"
				></path>
				<path
					class="st0_white"
					d="M198.2,100.3c0.9,0.5,1.7,1.2,2.2,2.2c0.5,1,0.8,2.1,0.8,3.5v8.8h-3.1v-8.3c0-1.3-0.3-2.4-1-3.1     s-1.6-1.1-2.7-1.1c-1.2,0-2.1,0.4-2.7,1.1c-0.7,0.7-1,1.7-1,3.1v8.3h-3.1V99.8h3.1v1.7c0.5-0.6,1.1-1.1,1.9-1.4     c0.8-0.3,1.6-0.5,2.5-0.5C196.2,99.6,197.3,99.8,198.2,100.3z"
				></path>
				<path
					class="st0_white"
					d="M208.1,114c-1.1-0.6-2-1.5-2.7-2.7c-0.6-1.2-1-2.5-1-4c0-1.5,0.3-2.9,1-4c0.7-1.2,1.6-2.1,2.7-2.7     c1.2-0.6,2.4-0.9,3.9-0.9s2.7,0.3,3.9,0.9c1.2,0.6,2.1,1.5,2.7,2.7c0.7,1.2,1,2.5,1,4c0,1.5-0.3,2.9-1,4     c-0.7,1.2-1.6,2.1-2.8,2.7c-1.2,0.6-2.5,1-3.9,1C210.5,114.9,209.2,114.6,208.1,114z M214.1,111.7c0.7-0.4,1.3-0.9,1.7-1.7     c0.4-0.8,0.6-1.7,0.6-2.8s-0.2-2-0.6-2.7s-1-1.3-1.6-1.7c-0.7-0.4-1.4-0.6-2.2-0.6s-1.5,0.2-2.2,0.6s-1.2,0.9-1.6,1.7     c-0.4,0.7-0.6,1.7-0.6,2.7c0,1.6,0.4,2.8,1.2,3.7c0.8,0.9,1.8,1.3,3.1,1.3C212.7,112.3,213.4,112.1,214.1,111.7z"
				></path>
			</g>
			<g>
				<path
					class="st0_white"
					d="M245.7,100.3c0.9-0.5,1.9-0.7,3.1-0.7c1.3,0,2.5,0.3,3.5,1c1.1,0.6,1.9,1.5,2.5,2.7c0.6,1.2,0.9,2.5,0.9,4     s-0.3,2.8-0.9,4c-0.6,1.2-1.5,2.1-2.5,2.8c-1.1,0.7-2.3,1-3.5,1c-1.1,0-2.1-0.2-3-0.7s-1.6-1-2.2-1.7v9.2h-3.1v-22h3.1v2.2     C244.1,101.3,244.8,100.7,245.7,100.3z M252,104.5c-0.4-0.7-1-1.3-1.7-1.7c-0.7-0.4-1.4-0.6-2.2-0.6c-0.8,0-1.5,0.2-2.2,0.6     c-0.7,0.4-1.3,1-1.7,1.7s-0.6,1.6-0.6,2.7c0,1,0.2,1.9,0.6,2.7c0.4,0.8,1,1.3,1.7,1.7c0.7,0.4,1.4,0.6,2.2,0.6     c0.8,0,1.5-0.2,2.2-0.6c0.7-0.4,1.3-1,1.7-1.8c0.4-0.8,0.6-1.7,0.6-2.7C252.6,106.2,252.4,105.3,252,104.5z"
				></path>
				<path
					class="st0_white"
					d="M259.2,103.2c0.6-1.2,1.5-2,2.5-2.7c1.1-0.6,2.3-1,3.6-1c1.2,0,2.2,0.2,3.1,0.7s1.6,1,2.1,1.7v-2.2h3.1v14.9     h-3.1v-2.2c-0.5,0.7-1.2,1.3-2.1,1.8c-0.9,0.5-1.9,0.7-3.1,0.7c-1.3,0-2.4-0.3-3.5-1c-1.1-0.7-1.9-1.6-2.5-2.8     c-0.6-1.2-0.9-2.5-0.9-4S258.6,104.4,259.2,103.2z M269.8,104.6c-0.4-0.8-1-1.3-1.7-1.7c-0.7-0.4-1.4-0.6-2.2-0.6     c-0.8,0-1.5,0.2-2.2,0.6c-0.7,0.4-1.2,1-1.7,1.7c-0.4,0.7-0.6,1.6-0.6,2.7c0,1,0.2,1.9,0.6,2.7c0.4,0.8,1,1.4,1.7,1.8     c0.7,0.4,1.4,0.6,2.2,0.6c0.8,0,1.5-0.2,2.2-0.6c0.7-0.4,1.2-1,1.7-1.7c0.4-0.8,0.6-1.7,0.6-2.7     C270.4,106.2,270.2,105.3,269.8,104.6z"
				></path>
				<path
					class="st0_white"
					d="M282.8,100.2c0.7-0.4,1.6-0.6,2.7-0.6v3.2h-0.8c-1.2,0-2.1,0.3-2.7,0.9c-0.6,0.6-0.9,1.7-0.9,3.2v7.8h-3.1     V99.8h3.1v2.2C281.4,101.2,282,100.6,282.8,100.2z"
				></path>
				<path
					class="st0_white"
					d="M292.6,102.3v8.2c0,0.6,0.1,1,0.4,1.2c0.3,0.2,0.7,0.4,1.3,0.4h1.9v2.6h-2.4c-1.4,0-2.4-0.3-3.2-1     c-0.7-0.6-1.1-1.7-1.1-3.2v-8.2h-1.8v-2.5h1.8v-3.7h3.1v3.7h3.6v2.5H292.6z"
				></path>
				<path
					class="st0_white"
					d="M310,100.3c0.9,0.5,1.7,1.2,2.2,2.2s0.8,2.1,0.8,3.5v8.8h-3.1v-8.3c0-1.3-0.3-2.4-1-3.1     c-0.7-0.7-1.6-1.1-2.7-1.1c-1.2,0-2.1,0.4-2.7,1.1s-1,1.7-1,3.1v8.3h-3.1V99.8h3.1v1.7c0.5-0.6,1.1-1.1,1.9-1.4     c0.8-0.3,1.6-0.5,2.5-0.5C308,99.6,309.1,99.8,310,100.3z"
				></path>
				<path
					class="st0_white"
					d="M330.8,108.4h-11.4c0.1,1.2,0.5,2.1,1.3,2.9c0.8,0.7,1.8,1.1,2.9,1.1c1.7,0,2.8-0.7,3.5-2.1h3.3     c-0.5,1.4-1.3,2.5-2.4,3.4s-2.6,1.3-4.4,1.3c-1.4,0-2.7-0.3-3.8-1c-1.1-0.6-2-1.5-2.6-2.7c-0.6-1.2-1-2.5-1-4     c0-1.5,0.3-2.9,0.9-4c0.6-1.2,1.5-2.1,2.6-2.7s2.4-0.9,3.9-0.9c1.4,0,2.7,0.3,3.8,0.9c1.1,0.6,2,1.5,2.6,2.6     c0.6,1.1,0.9,2.4,0.9,3.8C330.9,107.4,330.8,107.9,330.8,108.4z M327.7,105.9c0-1.1-0.4-2-1.2-2.7s-1.8-1-2.9-1     c-1.1,0-2,0.3-2.7,1c-0.8,0.7-1.2,1.6-1.4,2.7H327.7z"
				></path>
				<path
					class="st0_white"
					d="M339.2,100.2c0.7-0.4,1.6-0.6,2.7-0.6v3.2H341c-1.2,0-2.1,0.3-2.7,0.9c-0.6,0.6-0.9,1.7-0.9,3.2v7.8h-3.1     V99.8h3.1v2.2C337.8,101.2,338.4,100.6,339.2,100.2z"
				></path>
			</g>
		</g>
		<path
			class="st1_blue"
			d="M234.9,107.2c0,2.7-2.2,5-5,5c-2.7,0-5-2.2-5-5s2.2-5,5-5C232.7,102.3,234.9,104.5,234.9,107.2"
		></path>
	</g>
</svg>
